<?xml version="1.0" encoding="utf-8"?>
<!-- Generator: Adobe Illustrator 19.1.0, SVG Export Plug-In . SVG Version: 6.00 Build 0)  -->
<svg version="1.1" id="Layer_1" xmlns="http://www.w3.org/2000/svg" xmlns:xlink="http://www.w3.org/1999/xlink" x="0px" y="0px"
	 viewBox="0 0 250 350" style="enable-background:new 0 0 250 350;" xml:space="preserve">
<style type="text/css">
	.st0{fill:#4F4F4F;}
	.st1{fill:#252525;}
	.st2{fill:#6B6C6C;}
	.st3{fill:#535454;}
	.st4{fill:#575757;}
	.st5{fill:#979797;}
	.st6{fill:#959595;}
	.st7{fill:#898989;}
	.st8{fill:#464646;}
	.st9{fill:#5E5E5E;}
	.st10{fill:#6B6B6A;}
	.st11{fill:#3F3F3F;}
	.st12{fill:#828282;}
	.st13{fill:#313131;}
	.st14{fill:#414141;}
	.st15{fill:#040404;}
	.st16{fill:#A8A5A6;}
	.st17{fill:#D3D2D2;}
	.st18{fill:#AAAAAA;}
	.st19{fill:#9B9C9C;}
	.st20{fill:#676767;}
	.st21{fill:#494949;}
	.st22{fill:#181818;}
	.st23{fill:#3D3D3D;}
</style>
<g id="Scarf_Base">
	<path class="st0" d="M69.5,218c2.4-1.2,4.1,2.7,18.6,11.1c5.6,3.2,10,5.4,14.9,9.1c0.2,0.1,2.9,2.2,6.6,5c2.6,1.9,4,2.9,4.6,3.3
		c3.8,2.4,5.3,2.1,9.9,4.1c5.3,2.3,9.7,5.5,11.1,6.6c4,3,4.7,4.2,6.6,4.1c2.7-0.1,4.6-2.8,7.4-7c3.3-4.9,2.5-5.4,5.4-9.5
		c2.5-3.7,3-3.2,7.9-9.5c1.9-2.5,3.2-4.3,4.1-5.8c0.7-1,1.5-2.4,3.3-5.4c4.2-7.1,5.5-10.2,6.2-9.9c0.5,0.2,0,1.9,0.4,5.4
		c0.2,2.2,0.7,3.8,1.2,5.4c1.5,4.8,3.7,8.1,5.8,12c2.8,5.3,1.6,4.7,5.4,12.8c3.4,7.4,4.3,7.7,6.6,13.2c1.9,4.6,1.9,5.9,4.1,13.2
		c2.5,8.2,3.5,9.7,6.6,18.6c4.5,12.8,3.4,12.8,6.2,20.3c6.8,18.1,14.9,23.3,12.4,27.7c-1.5,2.6-5.2,2.1-24,1.7
		c-10-0.2-20.1-0.2-30.2-0.4c-16.1-0.2-24.2-0.4-24.3-0.4c-17.9,0.2-24.7,1.7-30.5-3.3c-1.5-1.3-5.9-5.1-5.8-9.9
		c0.1-3.4,2.3-5.5,1.2-8.2c-0.2-0.4-0.4-0.8-0.5-0.9c-1.4-2.2-3.7-2.9-4.5-3.2c-4-1.4-10.4-4.3-12.8-5.8c-3.2-2-5-4.8-8.2-10.3
		c-5.3-8.9-7.9-16.7-8.7-19.4c-2.2-7.2-3.5-13.5-5.8-30.5C66.7,221.8,67.7,218.9,69.5,218z"/>
	<path class="st1" d="M146.5,313c-5,5.4-1.5,10.5-6.2,18.1c-3,5-6.4,6.2-5.8,8.2c0.8,2.5,6.6,3.9,10.7,2c4.4-1.9,5.8-6.8,8.2-15.7
		c1.7-6.3,4.1-14.8,1.2-16.5C152.7,308.1,148.8,310.4,146.5,313z"/>
	<path class="st1" d="M183.2,258.9c-1.5,5.1-2.4,9.4-2.9,12.4c-0.4,2.5-0.6,4-2,15.7c-0.7,6.3-1.2,9.4-1.2,9.9
		c-0.2,1.7-1.4,8.5-4.1,17.3c-2,6.4-3.4,11.1-6.6,16.9c-2.4,4.3-4.8,7.6-6.6,9.9"/>
	<path class="st2" d="M189.4,272.5c-1.5,0.4-0.9,4.6-2,14.1c0,0-0.4,3.6-1.4,8.8c0,0-1.9,10-4.8,18.5c-6.4,18.8-20.9,26.9-18.3,31.3
		c1.7,2.9,7.8-0.8,28.7-1.2c16.3-0.3,24.5-0.5,24.8-0.4c2.4,0.4,6.8,1.4,7.9-0.4c0.7-1.1-0.2-2.8-1.7-5.4c-14.1-26-1.5-4.5-5.8-10.7
		c-2.2-3.2-2.6-4.6-8.2-17.3C197.2,284.5,191.6,272,189.4,272.5z"/>
	<path class="st3" d="M183.2,310.9c0.1,3,4.1,3.7,8.7,7.9c4.9,4.5,6.9,9.8,8.2,13.2c2.7,7.1,2.4,12.4,2.9,12.4
		c0.6,0,1.6-7.6,0.4-16.1c-0.6-4.2-2.2-12.1-7.4-20.3c-3.4-5.3-8.1-10.3-9.5-9.5c-0.9,0.5,0.2,2.7-0.8,6.6
		C184.7,308.6,183.1,309.1,183.2,310.9z"/>
	<path class="st3" d="M182,316.7c-0.6,0-0.2,3.8-2.5,9.5c-1.1,2.9-1.8,4.6-3.3,6.6c-1.5,2-2.7,2.5-2.9,4.1c-0.4,2.2,1.2,5.2,2.9,5.4
		c2.8,0.3,6.7-7.4,7.4-14.4C184.2,321.9,182.7,316.7,182,316.7z"/>
</g>
<g id="lips_BASE">
	<path class="st4" d="M116.8,201.3c0,0,1.5,0.6,2.8,0.7c0.4,0.1,1.4,0.1,1.7,0.1c0,0,0.2,0,0.4,0h0.1c0.1,0,0.3,0,0.6,0
		c0,0,0.4,0,0.9-0.1c3.6-0.2,6.3-0.5,6.3-0.5c0.6-0.1,3.9-0.4,7.2-1.3c0.6-0.1,1.9-0.5,3.8-0.8c1.1-0.2,1.7-0.2,2.1-0.3
		c3.2-0.1,3.8,1.6,6.3,1.4c1.5-0.1,3-0.9,3.9-1.3c1.1-0.6,1.3-0.8,2-0.9c1.1-0.2,1.6,0.2,3.7,0.7c1.4,0.4,2.5,0.5,2.9,0.6
		c1.5,0.2,3,0.2,4.3,0.3c0.3,0,0.5,0,0.6,0c2.2,0.1,3.7-0.6,3.7-0.6s-3.3,1-4.1,1.3c-0.4,0.1-0.6,0.2-0.6,0.2
		c-0.4,0.2-0.6,0.3-1.2,0.5c-1.1,0.4-1.4,0.2-2.7,0.5c-1.4,0.3-1.3,0.5-3,0.9c-1.4,0.3-1.4,0.2-2.3,0.5c-1.1,0.4-1.1,0.6-2.4,1.1
		c-1.1,0.4-1.7,0.7-2.4,0.7c-1.1,0.1-1.2-0.4-2.3-0.2c-0.7,0.1-0.8,0.3-1.7,0.5c-0.6,0.1-1.2,0.2-2,0.1c-1.2-0.1-2.7-0.1-5.3-0.5
		c-1.1-0.1-2.2-0.3-2.5-0.4c-1.6-0.2-1.8-0.3-2.4-0.4c-1.3-0.1-1.4-0.1-3.2-0.2c-1.5-0.1-2.5-0.2-3.7-0.4c-0.5-0.1-1.5-0.3-2.5-0.5
		c-0.9-0.2-1.1-0.2-1.5-0.3c-1.2-0.2-2-0.2-2.4-0.2C119.4,202.7,116.8,201.3,116.8,201.3z"/>
	<path class="st5" d="M121.2,202.9c-0.1,0.1,0,0.2,1.1,1.1c1.4,1.1,2,1.5,2,1.5s1.5,0.9,4.1,2.8s2.9,2.5,5.5,4.2
		c1.1,0.7,1.7,1.1,2.5,1.4c1.4,0.4,2.5,0.4,4.5,0.4c1.2,0,2.2-0.1,4.1-0.2c3-0.2,2.8-0.4,4.2-0.4c3.2-0.1,3.3,0.4,5,0
		c1.6-0.4,2.7-1.2,4.3-2.3c0.9-0.7,2.1-1.5,3.2-2.9c1-1.2,1.5-2.4,1.7-3c0.6-1.4,0.2-2.1,1-3.1c0.6-0.9,1.5-1.2,1.4-1.4
		c-0.1-0.1-1.1,0.5-2.5,0.9c-0.8,0.2-0.7,0.1-1.7,0.2c-1.8,0.4-2,0.8-3.6,1.1c-0.2,0-0.7,0.1-1.3,0.2c-0.7,0.2-1.1,0.3-1.2,0.4
		c-0.3,0.1-0.4,0.2-0.9,0.5c-0.4,0.2-0.8,0.4-1.1,0.6c-0.2,0.1-1,0.4-2,0.6c-1.2,0.1-1.4-0.3-2.6-0.2c-0.7,0.1-0.6,0.2-1.4,0.4
		c-0.4,0.1-1.1,0.2-2.9,0.1c-0.8-0.1-1.4-0.1-2.4-0.2c-1.6-0.2-2.4-0.2-3.7-0.4c-2.8-0.4-2.5-0.4-4.1-0.6c-1.1-0.1-2.2-0.2-3.9-0.4
		c-1.5-0.1-2-0.1-2.8-0.3c-1.2-0.2-1.3-0.3-2.7-0.6C123.6,202.9,121.4,202.5,121.2,202.9z"/>
</g>
<g id="eye_brows_2">
	<path class="st6" d="M134.6,116.9c0.2,1.2-2,2.6-2.5,2.8c-0.4,0.2-1.2,0.6-2.4,0.9c-1.2,0.2-2,0.1-2.7,0c-3-0.4-4.5-0.6-5.3-0.9
		c-4.1-1.1-8.5-1.6-13.5-2.3c-3.2-0.4-4.8-0.6-6.6-0.6c-3.5,0.1-6.2,0.1-9.2,1.4c-2,0.9-3.2,1.8-4.5,1.3c-1.1-0.4-1.1-1.4-2.7-2.3
		c-1.5-0.9-2.4-0.6-2.5-1c-0.3-1,4-3.1,8.5-5.3c4.8-2.3,5.9-2.5,6.9-2.7c2.4-0.4,4.5-0.1,6.6,0.1c0.8,0.1,1.3,0.2,6.3,0.9
		c0.9,0.1,0.8,0.1,0.9,0.1c1.1,0.2,2.1,0.4,6.1,1.3c7.4,1.6,8.9,1.9,9.9,2.4c0.1,0.1,0.3,0.2,0.6,0.4c1.1,0.6,1.7,0.2,2.7,0.6
		c0.2,0.1,0.6,0.4,1.3,1C133.9,116.1,134.5,116.6,134.6,116.9z"/>
	<path class="st7" d="M165.5,119.9c0.2,1.2,3.3,2,6,1.7c1.2-0.1,1.3-0.4,3.2-0.7c1.5-0.2,2-0.2,4-0.3c4.1-0.2,4.1-0.8,5.9-0.6
		c2,0.3,1.9,1,4.3,1.3c2.5,0.3,3.8-0.3,4.3-0.6c0.5-0.3,1.6-0.9,1.6-1.7c0-0.9-1.2-1.6-2.7-2.4c-1-0.6-1.8-0.9-2.9-1.3
		c-2.3-0.8-3.5-1.2-4.5-1.4c-2-0.4-3.5-0.2-6,0.1c-1.4,0.2-3.3,0.4-5.9,1.3c-1.8,0.6-3,1.2-3.8,1.7
		C166.9,118.2,165.4,119,165.5,119.9z"/>
</g>
<g id="Brows_BASE">
	<path class="st8" d="M125.3,114.3c0.1,1.4-4.2,3.8-8.3,3.3c-1.6-0.2-1.9-0.6-4.9-1.2c-2.2-0.4-3.8-0.6-5.4-0.6
		c-5-0.3-9.8,0.1-11.7,0.2c-2.1,0.2-3,0.3-3,0.2c-0.1-0.4,5.1-2.3,10.2-3.5c1.5-0.4,6.3-1.4,12.3-1.4c1.1,0,3.8,0,7.1,1
		C123.6,112.9,125.3,113.4,125.3,114.3z"/>
	<path class="st4" d="M170.5,117.3c-0.1,1.2,5.6,3.5,10.2,2.4c0.9-0.2,1.4-0.5,2.7-0.6c3.6-0.5,6.2,0.7,6.3,0.4
		c0.1-0.3-1.7-1.5-3.8-2.4c-1.4-0.6-4.3-1.8-8.4-1.6C175,115.5,170.6,116.2,170.5,117.3z"/>
</g>
<g id="nose">
	<path class="st9" d="M130,166.2c3.7,0.6,4,0.7,4.3,1c1,0.9,1.1,2.3,1.1,2.5c0.1,0.5,0.1,1.5-0.6,2.2c-0.6,0.6-1.2,0.5-3.1,0.7
		c-2.2,0.3-3.3,0.4-4.1,1.1c-1.4,1.1-1.5,2.8-1.5,2.9c-0.4,3.7,5.1,6.3,4.6,7.1c-0.5,0.8-7.1-0.4-9.8-5.1c-0.3-0.6-1.8-3.1-1-5.9
		c0.4-1.3,1.1-2.3,2-3.4c0.7-0.9,1.6-2,3.1-2.7c1.1-0.6,2-0.7,2.2-0.7C127.9,165.9,128.4,165.9,130,166.2z"/>
</g>
<g id="nose_BASE">
	<path class="st8" d="M162.1,167.3c0.1-0.1,1.5,1.3,2.8,3c1.4,1.8,3.7,4.8,2.6,6.9c-0.1,0.2-0.2,0.4-0.6,0.8c-2.8,3.4-5.9,5.1-5.9,5
		c-0.1-0.1,1.2-0.8,1.9-2.4c0.2-0.6,0.2-0.8,0.1-1c-0.3-0.7-1.9-0.9-2.7-0.8c-1,0.1-1.8,0.5-2.8,1.1c-0.5,0.2-0.8,0.4-1.1,0.6
		c-0.3,0.2-0.6,0.4-1.1,0.7c-0.1,0.1-0.2,0.1-0.4,0.2c-1.1,0.6-1.2,0.7-1.5,0.9c-0.7,0.2-1.1-0.2-2.4-0.4c-0.8-0.1-1.4-0.1-2.4,0.1
		c-1.7,0.2-2.2,0.6-3.1,0.4c-0.4-0.1-0.5-0.2-1.2-0.7c-1.1-0.6-2-0.9-2.7-1.1c-1.9-0.6-3.5-0.7-4.1-0.7c-1.7-0.1-3.1-0.2-3.3,0.4
		c-0.1,0.2,0.4,0.5,0.7,1.4c0.1,0.4,0.2,0.5,0.1,0.7c-0.2,1.1-2.7,1.9-4.7,1.4c-0.1,0-0.5-0.1-1-0.4c-1.2-0.6-1.9-1.5-2.4-2.2
		c-0.2-0.3-0.9-1.5-1.3-3.2c-0.2-1-0.6-2.7,0.1-4.6c0.1-0.2,0.8-2.4,2.8-3.8c0.6-0.4,1.3-0.9,1.4-0.8c0.1,0.1-0.7,0.9-1.3,1.5
		c-0.2,0.2-0.4,0.4-0.6,0.6c-0.2,0.2-0.6,0.6-0.9,1.1c0,0-0.6,0.9-0.8,2c-0.2,1.1-0.7,4.4,1.3,7.1c0.4,0.6,1.1,1.4,2.1,1.7
		c0.9,0.3,1.7,0.2,2.7,0.1c0.7-0.1,0.8-0.2,0.9-0.3c0.4-0.6-0.6-1.5-0.3-2.4c0.2-0.7,1.4-1.1,2-1.2c2.4-0.6,4.7,0.2,6.5,0.8
		c1.5,0.6,2.4,0.8,2.8,1.1c0.4,0.2,0.9,0.7,1.7,0.8c0.4,0.1,0.9,0,1.1,0c0.2,0,0.6-0.1,1.1-0.1c0.6-0.1,0.6-0.2,1.2-0.3
		c0.4-0.1,0.7-0.1,1.1-0.1c0.5,0,0.7,0.1,1.7,0.3c0.7,0.1,1.1,0.2,1.2,0.2c0.8-0.1,1.2-0.6,2-1.2c0.9-0.7,1.7-1.1,3-1.5
		c1.6-0.6,2.6-1.1,3.5-0.6c1.1,0.4,1.1,1.4,1.9,1.4c1,0,1.7-1.5,1.9-1.7c0.4-0.9,0.4-1.6,0.4-2.2c0-0.3-0.1-1.2-0.6-2.5
		c-0.4-0.9-0.7-1.2-1.7-2.7C163.4,169.6,161.9,167.5,162.1,167.3z"/>
</g>
<g id="Eyes_BASE">
	<path class="st10" d="M167,136.3c0,1.2,2.1,2,2.3,2.1c0.6,0.2,1.1,0.2,2.2,0.3c1.2,0.1,1.9,0.1,2.8-0.2c0.8-0.2,1.3-0.7,1.7-1
		c0.4-0.3,1-0.7,1.5-1.5c0.3-0.5,0.7-1,0.7-1.8c0.1-0.7-0.2-1.4-0.2-1.6c-0.2-0.5-0.4-0.8-0.5-0.9c0,0-0.3-0.4-0.7-0.6
		c-0.5-0.3-1.4-0.4-5.7,1.7c-0.9,0.4-1.7,0.9-2.5,1.6C167.6,135.1,167,135.6,167,136.3z"/>
	<path class="st8" d="M105.2,129c0.7-0.6,2.1-0.6,5-0.4c1,0.1,1.7,0.1,1.9,0.1c3.2,0.3,4.8,0.5,5.3,1.1c0.6,1-0.2,2.5-0.9,3.7
		c-0.6,1.1-1.4,2.4-2.8,2.8c-0.4,0.1-0.7,0.1-4.5-0.9c-2-0.5-2.4-0.6-2.8-0.9c-0.3-0.2-1.8-1.2-1.9-3
		C104.4,131.2,104.3,129.8,105.2,129z"/>
	<path class="st10" d="M185.9,133c0.1,0.1-0.3,0.8-0.6,1.3c-0.4,0.6-0.9,1.5-1.7,2.3c-1.2,1.1-2.4,1.5-3,1.7
		c-0.2,0.1-1.3,0.2-3.3,0.6c-1.5,0.2-1.9,0.3-2.6,0.4c-0.2,0-1.1,0.1-2.2-0.1c-1.6-0.1-1.8-0.4-3.3-0.6c-2.2-0.2-3,0.1-3.3-0.4
		c-0.3-0.5,0.2-1.3,0.9-2.4c0.1-0.2,0.9-1.3,2.1-2.3c0.4-0.3,0.8-0.6,0.9-0.6c0.2-0.1,0.6-0.4,1.3-0.7c1.7-0.8,3.2-1.3,3.2-1.3
		c0.9-0.3,2-0.5,4.3-0.9c0.9-0.1,1.7-0.4,2.8-0.4c0.6,0,1,0.1,1.5,0.1c0.3,0.1,0.7,0.1,1.4,0.3c0.7,0.2,0.7,0.2,0.7,0.2
		c0,0.1-0.9-0.1-2.6-0.1c-0.7,0-1.4-0.1-2.4,0.1c-0.7,0.1-1.2,0.1-2.2,0.4c-1.1,0.2-1.7,0.4-2.5,0.6c-1.2,0.3-1.9,0.5-2.8,0.9
		c-0.8,0.4-1.4,0.7-1.9,1c-0.6,0.4-1.4,0.9-2.4,1.7c-0.4,0.4-2.5,2.2-2.1,2.9c0.1,0.2,0.4,0.2,1.1,0.2c1.9,0.2,1.9,0.4,3.7,0.6
		c0.7,0.1,1.2,0.1,2.2,0c1.9-0.1,3.5-0.1,5.6-0.6c1.9-0.4,2.9-1,3.2-1.1c1-0.6,1.6-1.2,2-1.6C185.2,133.7,185.7,133,185.9,133z"/>
	<path class="st8" d="M126.2,136.7c0.1-0.1-0.4-1-0.9-1.9c-0.5-0.8-1.1-1.3-1.2-1.5c-0.5-0.5-0.9-0.8-1.6-1.3c-1-0.7-2-1.3-3.5-2
		c-1.7-0.8-3.2-1.1-4.4-1.4c-1.1-0.2-2.4-0.6-4.1-0.6c-0.4,0-1.4,0-3.5,0.1c-1.4,0.1-2.2,0.1-3.1,0.2c-0.9,0.1-1.4,0.2-2,0.4
		c-0.2,0.1-0.8,0.3-1.5,0.8c-0.8,0.6-1.2,0.8-1.2,1.2c0,0.3,0.2,0.6,1.2,1.4c1.1,0.8,1.7,1.2,2.3,1.5c0.7,0.4,1.4,0.7,3.3,1.4
		c1.7,0.6,3.2,1.1,5.3,1.5c1.1,0.2,2.2,0.5,3.9,0.7c1.5,0.2,2.6,0.2,3.2,0.2c1.1,0,1.8,0,2.8-0.1c1.4-0.2,2.7-0.7,2.7-0.8
		c0-0.1-0.2,0-0.7,0.1c-0.9,0.1-1.5,0.2-1.6,0.3c-0.6,0.1-1.4,0.1-3,0c-0.7-0.1-1.7-0.1-3.2-0.3c-1.9-0.2-3.4-0.6-3.8-0.6
		c-0.7-0.1-1.9-0.4-3.3-0.9c-2.2-0.7-3.5-1.4-3.9-1.5c-1.6-0.7-2.2-1.3-2.5-1.5c-0.6-0.6-1.1-1.1-1.3-1.4c0.2-0.3,0.5-0.7,1.1-1.1
		c0.6-0.4,1.1-0.5,3.6-0.8c0.6-0.1,1.5-0.2,2.7-0.2c1.3,0,2.3,0.1,3.3,0.1c1,0.1,1.5,0.1,2.4,0.3c0.2,0.1,1.3,0.2,3,0.8
		c1.9,0.6,2.8,0.9,3.6,1.4c0.4,0.2,1.4,1.1,3.2,2.7c0.8,0.7,1.2,1.1,1.7,1.7C125.8,136.3,126.2,136.7,126.2,136.7z"/>
	<path class="st11" d="M184.7,130.6c0.2-0.4,3.5-0.1,5.1,1.8c0.3,0.4,1.2,1.6,1.2,1.6l0,0c0,0,0.6,1,0.3,1.2
		c-0.2,0.2-0.9-0.4-2.1-0.9c-2-0.8-3.5-0.4-3.7-1.1c-0.1-0.4,0.3-0.5,0.3-1.1C185.9,131.2,184.7,130.8,184.7,130.6z"/>
	<path class="st8" d="M101.1,129.4c-0.4-0.6-3.3,0.6-3.7,0.6c-1.8,0.7-3.4,1.7-3.3,1.9c0.1,0.2,1.3-0.6,3.4-0.6c1,0,1.4,0.1,2-0.2
		C100.6,130.8,101.4,129.8,101.1,129.4z"/>
</g>
<g id="face_2__x2B__scarf_shades">
	<path class="st12" d="M173,64.8c-3.2-3.8-6.3-6.1-8.5-7.4c-2.4-1.4-4.5-2.2-8.2-3.7c-4.1-1.6-7.4-2.5-8.7-2.9
		c-4.1-1.1-7.2-1.7-9.5-2c-3.9-0.7-6.8-1.2-10.7-1.2c-1.5,0-1.8,0.1-4.5,0c-3.6-0.1-4.6-0.2-6.6,0c-1.9,0.2-3.3,0.5-4.5,0.8
		c-1.5,0.4-5.5,1.5-10.3,4.1c-8.8,4.8-13.7,11.2-15.4,13.5c-0.3,0.4-0.7,0.9-1.1,1.5c-1.6,2.7-2.8,7.2-6.3,24.7
		c-3.1,15.2-2.8,15-4.4,22.2c-3.2,14.6-4.1,14.9-5.6,24.2c-0.7,4.3-1.9,11.6-2,21.1c-0.1,3.4,0.1,3.5,0,12
		c-0.1,11.9-0.3,12.6,0,15.1c0.9,7.5,4.5,12.8,7.6,17.3c14.5,21.1,44.8,37.2,46,35.6c1-1.4-20.7-14.1-17.9-25
		c1.2-4.7,6.3-6.4,5.6-10c-1.1-5.3-12.8-4.7-14.4-10.2c-1.4-5.1,8-9.6,6.4-13.7c-1.5-3.8-10.2-1-18.5-6.3c-0.4-0.2-8.5-5.6-10-14.2
		c-2-12,10.8-16.4,10-31.3c-0.3-5.7-2.4-7.9-0.6-12c2.6-5.9,10.3-9.2,13.5-10.5c0.7-0.3,3.5-1.4,6.1-2c15.5-3.2,31.7,12.9,34.6,10
		c1.6-1.6-3.5-6.4-1.2-10.8c1.6-3,6-4.6,9.4-4.8c3.7-0.2,5,1.3,6.4,0.3c2.5-1.7-0.7-6.4,1.5-11.1c2.8-6,11.6-4.4,12.9-10
		c1.2-5.1-3.1-8.5-1.2-11.4C164.6,64.1,169.3,64.3,173,64.8z"/>
	<path class="st1" d="M88.4,244.8c-0.6,0.5,2.7,4.3,8.7,13.6c4.6,7.2,4.3,7.6,7.9,12.8c4,5.9,4.5,5.6,10.3,13.6
		c5.7,7.8,7.8,11.5,8.7,11.1c1-0.4-0.4-5.3-1.2-8.7c-1.1-4.1-2.3-8.6-5.4-13.6c-1.4-2.3-3.7-4.8-8.2-9.9c-3-3.3-5.8-6.4-9.9-10.3
		C97.3,251.7,89.2,244.1,88.4,244.8z"/>
	<path class="st1" d="M74.8,258c2.4-1.1,6.8,3.4,15.7,12.4c2.6,2.7,6.5,6.8,10.7,12.4c2.4,3.2,1.1,1.7,8.2,12.4
		c0.6,0.8,1.7,2.5,2.9,5c1.4,3,2.6,5.3,2.5,8.2c-0.1,2.8-1.4,6.8-3.3,7c-1.5,0.2-2.7-1.9-5.4-5.4c0,0-3.8-5.1-9.5-10.7
		c-1.7-1.7-1.7-1.5-11.6-9.9c-3.7-3.2-5.6-4.8-5.8-5C71.3,276.1,70.8,259.9,74.8,258z"/>
	<path class="st13" d="M136.4,270.4c-1.6,0.6-4-3.7-7.9-7.9c-3.8-4.1-7.5-6.3-14.1-10.3c-5.4-3.3-5.1-2.4-12.4-6.6
		c-5.9-3.4-9.5-5.5-14.1-9.1c-5.6-4.5-5-5.3-9.5-8.2c-2.6-1.7-5.9-3.2-5.8-5c0.1-1,1.2-1.6,1.2-1.7c2-1.2,5.1,0.8,15.3,7.9
		c4.6,3.2,6.9,4.8,8.2,5.8c7.1,5.3,6.6,5.8,10.7,8.7c9.4,6.6,12.6,4.7,18.6,10.7c1.9,2,3,3.5,5.8,5c4.3,2.2,8.4,1.5,8.7,2.9
		c0.2,0.9-1.3,1.2-2.9,3.7C136.9,268.7,137.2,270.1,136.4,270.4z"/>
	<path class="st13" d="M154.1,262.6c1.1,0.2,0.4,7.4,0.3,8.5c-0.6,6.4-2.4,10.9-2.8,11.8c-1.9,4.5-4.3,6.9-7.4,11.1
		c-5.6,7.6-10.2,13.5-17.3,21.1c-4,4.2-13.4,13.8-14.1,13.2c-0.3-0.2,1.5-2.6,14.1-19.8c2.2-3,3.8-5.2,6.2-8.2
		c4.6-5.9,7.4-8.3,9.1-10.7C151.5,275.9,152.7,262.3,154.1,262.6z"/>
	<path class="st14" d="M133.9,272.9c0.1,1.6-1.2,1.9-3.7,6.2c-2.3,3.9-2.5,5.8-3.3,5.8c-1.3-0.1-1.2-5.1-3.3-11.6
		c-2.8-8.7-7.4-13.4-6.6-14.1c0.6-0.5,2.8,2.4,8.7,6.6C131,269.8,133.8,270.6,133.9,272.9z"/>
	<path class="st15" d="M66.6,228.3c0.1,1.3,0,1.2,0,7.4c0,0,0,2.2,0,8.2c0,15.8-0.4,30.8,5.8,43.4c7.5,15.1,20.6,24,21.5,23.1
		c1.1-1.1-12.9-18.2-12-19c0.7-0.6,10,9.4,10.3,9.1c0.2-0.2-3.4-4-7-9.9c-2.7-4.5-5.3-10.2-4.5-10.7c0.6-0.4,2.7,2.5,7.4,6.6
		c5,4.3,10.3,7.5,10.7,7c0.4-0.4-4.2-3.8-9.1-10.3c-4.5-6-8.5-13.6-7.4-14.4c1.5-1.2,13.6,11.2,13.6,11.1c0.1-0.1-5-4.1-9.1-10.7
		c-0.6-1.1-5.3-8.5-3.7-9.9c2.2-2,14.6,8.7,15.3,7.9c0.6-0.6-7.6-7.1-15.3-18.1c-4-5.8-6.8-11.1-6.2-11.6c0.6-0.4,3.8,5.1,10.7,9.5
		c7.1,4.5,14.8,5.9,15.3,5c0.2-0.6-2.4-1.9-9.9-7.9c-7.6-5.9-9.1-7.8-9.9-10.3c-1.1-3.5,0-4.2-1.2-7c-3-6.6-13.3-9.5-15.7-7
		C65.2,220.7,66.3,221.8,66.6,228.3z"/>
</g>
<g id="BASE_face">
	<path class="st8" d="M70.1,195c2.2,5.7,5.5,9.7,7.3,12c0.3,0.4,1.1,1.2,1.9,2.3c0.7,0.8,2.4,2.8,4.3,4.8c2.5,2.7,4.6,4.6,6.3,6.1
		c2.1,1.9,4.5,4,7.9,6.4c1.1,0.8,1.6,1.1,4.4,3.1c3.1,2.2,3.1,2.2,4.1,3c1.4,1,3.9,2.7,7.1,4.3c1.9,0.9,6.6,3.3,6.9,2.8
		c0.7-1-15.7-11.8-27.2-23.8c-0.8-0.8-1.7-1.8-2.7-3c-4.2-5.1-4.9-8.2-8.8-15.9c-7.5-15-8.5-19.1-10.4-19c-0.9,0.1-1.7,1.1-2.2,1.8
		c-1.1,1.5-1.4,3.4-1.1,6.4C68.5,190.9,69.9,194.4,70.1,195z"/>
	<path class="st8" d="M73,121.3c0.5-2,1.7-6.8,2.7-12.1c1.3-7.1,2-12.4,2-12.4c0.2-1.4,0.4-2.8,0.9-4.8c0.8-3.2,1.4-3.6,2-6.6
		c0.6-2.4,0.8-4.7,0.9-5.7c0.2-2.4,0.1-3,0.6-4.6c0.6-1.7,1-1.8,1.5-3.5c0.6-2,0-2.2,0.6-4.1c0.3-1.1,0.9-2,1.9-3.8
		c0.8-1.4,1.2-2,1.6-2.4c0.5-0.6,0.7-0.8,1.7-1.7c2.4-2.2,2.2-2,3.1-2.8c1.7-1.4,3.2-2.4,3.2-2.4c0.4-0.3,1.7-0.9,4.1-2
		c1.7-0.8,2.2-1.1,2.8-1.3s1.1-0.3,2.7-0.8c0.8-0.2,1.9-0.5,3.1-0.9c0.6-0.1,1.4-0.2,2.5-0.4c1-0.2,1.3-0.4,2.5-0.7
		c1.3-0.3,1.9-0.5,2.7-0.4c0.2,0,1.4,0.1,2.5,0.9c1.1,0.7,1.7,1.7,1.9,2.1c-0.2,1.4-0.6,2.4-1.1,3c-2.4,4-8.1,4.8-10.1,5.1
		c-2.5,0.4-2.8,0-4.4,0.6c-2,0.8-3,2-5.5,4.7c-4.1,4.5-4,3.4-5.1,5.1c-3.1,4.6-2.7,10-2.5,11c0.2,3.2,1.1,3.8,0.8,6.6
		c-0.3,2.7-1.1,2.8-1.7,6c-0.7,3.8,0.2,4.3-0.6,7.6c-0.7,2.8-2.2,4.8-2.9,5.8c-1.8,2.5-2.9,2.8-4.7,4.7c-2.8,3.1-3.8,6.5-4.4,8.8
		c-1.8,6.4,0.1,9.7-2.5,11.8c-1.2,1-3.3,1.5-4.3,0.8C70.1,131.4,71.2,128.5,73,121.3z"/>
	<path class="st16" d="M186.3,70.8c1.7,2.5,4.8,7.1,7,13.6c1.7,4.8,2.2,8.5,2.9,14.1c1.3,9.5-0.1,8.6,1.2,14.4c0,0,1.8,8.1,1.7,13.3
		c0,0.5,0,1.1,0,1.1c0,1.5-0.1,2.7-0.1,3.1c-0.2,4.3-0.2,6.5,0,8.7c0.2,2.3,0.7,3.2,1.2,5.4c1.3,5.3,1,9.8,0.8,12.4
		c0,0-0.5,7.6-3.3,14.4c-0.1,0.2-0.4,1-1.5,3.8c-1.2,2.9-1.8,4.3-2.2,5.3c-1.7,4.3-2.2,5.6-2.9,7.4c-1.5,3.8-3.2,6.4-6.2,11.1
		c-2.4,3.7-4.5,7.1-7.4,10.7c-1.1,1.3-2.1,2.8-4.1,5.8c-1.8,2.6-2,3.1-2,3.7c-0.2,3,4.5,4.6,7.9,7.4c6.4,5.3,7.5,14.1,9.1,26
		c0.9,6.6,0.2,8.2,1.7,14.9c1.1,5,2.4,8.8,3.7,12.4c2.6,7.2,4,11,7,15.7c3.7,5.6,7.5,9,9.9,11.1c4.2,3.7,9.4,7.2,9.9,6.6
		c0.6-0.6-4.4-4.5-8.7-12.8c-0.4-0.8-2.3-4.6-3.9-9.8c-0.9-3.1-1.4-5.4-1.9-7.9c-1.1-5.4-2.4-12.4-1.2-12.8c1.1-0.4,4.1,4.6,5.8,9.9
		c1.5,4.6,0.7,5.8,2,9.9c0.4,1.2,1.4,3.8,6.2,9.9c4.6,5.9,10.9,12.5,11.6,12c0.6-0.4-4-5.4-8.2-14.9c-1.4-3.2-3.9-9.2-5.4-16.9
		c-1.5-7.7-0.2-8.4-1.2-18.1c-0.3-3-1.4-12.8-5-24.3c-2.1-6.8-2.4-5.7-6.6-17.8c-4.8-13.6-5.2-17.5-5.4-19.4
		c-0.4-4.3,0-8.4,0.8-16.5c0.7-7.6,1.5-12.4,2-16.1c2.7-19,0-21.5,2.5-41.7c1.3-10.7,2.1-10.5,2.9-19.8c1.3-15.3-0.1-25-0.4-27.3
		c-0.7-5-1.7-11-4.5-18.1c-3.3-8.3-7.4-13.7-12-19.8c-5.8-7.6-9.4-12.4-15.7-17.3c-4.6-3.6-16.5-12.9-31.8-12.8
		c-4.8,0.1-2.7,1-19,3.7c-2.4,0.4-0.2,1.9-0.9,3.3c-1.4,2.8,0.4,5,3.8,14.1c2,5.2,0.9,6.4,2.9,8.7c3,3.4,7.2,2.7,15.3,4.1
		c1.7,0.3,9.1,1.7,16.5,5c2.3,1,10.1,4.7,17.8,12.4C180,62.8,183.1,66,186.3,70.8z"/>
	<path class="st17" d="M111.2,15.9c2.5,2.7,0.1,5.1,2.9,11.3c2.9,6.4,7.7,9,6.6,11.6c-0.4,1-1.7,1.5-4.1,2.7
		c-2.6,1.2-4.8,1.6-5.2,1.7c-4.4,1.1-7.1,0.9-12.5,2.8c-3.9,1.4-9.7,3.7-12.8,9.1c-1.2,2.1-1.5,4-1.7,4.5
		c-2.2,10.7-13.3,37.1-18.6,55.6c-3.5,12-9.2,36.7-9.5,78.2c0.1,11.8,0.8,21.4,1.5,28.1c1.6,16.2,4.9,36.5,11.7,53.2
		c4.8,11.8,10.3,20.6,10.3,20.6c10.4,16.7,20.8,24.4,19.8,25.6c-1.1,1.2-13.6-5.1-22.7-16.9c-2.9-3.8-5.5-9.4-10.7-20.6
		c-5.4-11.6-8.1-17.4-10.3-24.8c-2.7-8.7-3.7-15.6-5-23.5c-2.2-13.8-2.2-21.9-2.5-21.9c-0.4,0-1.5,23.3,3.7,51.6
		c0.2,1.2,3.2,16.7,10.3,35.9c5.1,13.7,8.5,18.9,13.2,23.1c7.5,6.8,15.7,8.7,15.3,9.9c-0.4,1.1-8.7,0.4-16.5-3.3
		c-9.2-4.3-14.6-11.2-18.1-15.7c-4.1-5.2-6.6-9.8-8.2-13.2c-0.9-1.7-3.5-6.9-6.6-16.5c-2.7-8.4-4.5-15.7-5.8-22.3
		c-3.1-15.6-2.5-19.8-5.4-37.6c-2.2-13.9-2.8-12.6-4.5-24c-3.1-19.6-3.2-34.9-3.3-44.2c-0.1-16.1-0.2-28.2,2.9-44.6
		c3.2-16.7,7.9-28.4,9.1-31.4c6.1-14.7,13-24.8,15.3-28.1c7.9-11.1,15.5-18.5,19.8-22.3c6.9-6.1,11.6-10.3,19.4-13.2
		C92,16.3,106.1,10.5,111.2,15.9z"/>
</g>
<g id="hair">
	<path class="st18" d="M85.7,63.5c-0.9-0.5-6.4,6.9-11.1,15.1c-7.9,13.5-10.6,25-12.3,31.9c-1.2,4.6-1.5,7.5-1.7,10.2
		c-0.3,4.8,0.3,5.9,0.3,12c0,2-0.1,3.5-0.9,12.8c-0.4,4.5-0.7,8.9-1.2,13.4c-1.4,15.1-2.5,27.3-1.2,41.3c0.8,8.3,1.7,10.5,4.1,31
		c0.4,3.1,0.6,5.7,0.8,7.4c0.2,2.4,0.6,5.3,1.2,8.7c0.1,0.6,0.9,4.4,2.5,8.7c3.6,10,10.8,21.6,11.6,21.1c0.9-0.4-7.4-12.4-9.5-30.6
		c-0.7-5.6-1.2-14.9-1.2-16.1c-0.2-5-0.4-8.6-0.4-13.6c0.1-6.6,0.4-7.4,0.4-13.6c-0.1-6.8-0.5-6.6-0.4-11.6
		c0.1-6.5,0.9-8.3,1.4-14.7c0.4-5.9-0.3-6.5-0.1-14.5c0.3-13.7,0.5-20.6,2.7-29.9c0.9-3.9,2.3-8.9,4.1-18c1.2-6.4,1.2-6.9,2.4-12.3
		c1.6-7.1,2.4-8.8,3.5-15.1c1-5.4,0.6-5.2,1.5-9.4C83.8,68.6,86.4,63.9,85.7,63.5z"/>
	<path class="st19" d="M50.7,70.3c-5.8,7-8.1,14.7-9.7,23.9c-2.8,16.1-2.5,29.5-2,38.7c0.9,18.1,1.5,32,5.6,50.7
		c5.4,24.8,13.6,43.3,14.7,43c1-0.3-7.7-16.9-5.3-39.6c0.2-2.2,2.2-12.1,6.1-31.9c2-10.2,2.5-12.5,2.9-17.1
		c0.9-10.7-0.7-13.1,0.6-23.6c1-8.3,2.9-14.6,3.5-16.5c1.2-3.8,2.7-7.2,5.6-13.9c2.2-5.2,3.4-7.9,4.7-9.7c2.8-4,4.7-4.7,5.3-7.7
		c0.6-2.8-0.7-3.8-1.7-8.2c-1.7-7.6,0.5-11-1.2-12c-2-1.1-5.8,3-19.3,15.1C52.3,68.7,52.1,68.6,50.7,70.3z"/>
</g>
<g id="hair_Base">
	<path class="st20" d="M131.3,41.1c-5.1-3.4-7.4-8.2-8.8-11.1c-1.9-4.1-2.1-7.6-2.4-10.5c-0.5-5.6-0.7-8.4,0.7-10.8
		c3.8-6.1,16-5.1,20.5-4.6c8.7,0.7,15.1,3.9,20.9,6.8c4.6,2.2,9.5,4.6,14.8,9.3c1.9,1.7,4.6,4.3,15.2,21c6.1,9.5,9,14.4,10.5,18.5
		c3,8,3.7,14.4,4.1,18.8c0.2,2.5,0.4,5.8-1.5,31.9c-0.6,8.2-0.9,11.8-1.2,18.2c-0.3,8.2-0.1,10.4-0.3,15.4c-0.5,16-3.2,17.9-4.4,35
		c-0.7,10.7-1.1,16.2,0.9,23.3c3.1,11.3,9.6,18.6,9.4,18.8c-0.2,0.1-7.6-6.8-11.5-18c-5.1-15.1-1.4-30.6-0.7-33.4
		c0.1-0.6,0.3-1.3,0.7-3c2.2-9.3,3.6-13.9,3.5-18.2c-0.1-3.3-0.5-3.5-1.5-13.4c-0.2-1.6-0.2-2.7-1.2-13.9c-1-12.3-1-12.6-1.2-14.2
		c-0.1-1.4-1.1-11.8-2-16.8c-0.3-1.7-3.7-18.9-17.3-29.9c-13.6-11-36.9-15.4-38.4-15.7C138.9,44.3,135.2,43.7,131.3,41.1z"/>
	<path class="st21" d="M191.3,185.1c-1.8-0.4-6.5,12.3-6.4,12.3l0,0c-5.9,7.2-7.9,10.5-7.9,10.5c-1.3,2.2-2,3.4-2.4,4.8
		c-1,4.3,0.7,7.9,1.5,9.7c1.3,3,3.4,9.5,7.6,22.5c3.2,10,4.1,16.9,4.7,16.8c0.9-0.1-1.7-17,0-17.3c0.7-0.1,1.6,2.5,3.5,6.6
		c4.8,10,7.1,10.4,10,17.1c1.2,2.7,2,7.7,3.8,17.7c2.2,12.7,2.5,16.8,2.9,16.8c0.7-0.1,1.9-11-0.6-23.3c-1.6-8.1-4.1-14.1-3.8-14.2
		c0.3-0.1,2.8,4.8,4.7,10.8c3.2,10.3,2.7,17.7,3.5,17.7c0.9,0,2.1-7.2,2-14.8c-0.1-4.9-0.6-10.6-2.4-17.1c-2.9-11-7.2-17.4-6.8-17.7
		c0.5-0.2,5.2,5.7,8.2,13.9c2.4,6.7,2.5,11.7,2.9,11.6c0.5-0.1,0.6-8.1-0.9-16.8c-1.6-9.4-4.1-15.1-5-16.8c-0.4-0.9-1.7-3.6-3.8-6.8
		c-3.8-6.1-5.6-6.6-7.9-10.8c-0.8-1.4-1.7-4.8-3.5-11.4c-1.9-6.9-2.8-10.4-3.2-13.9C191.7,187.8,192.1,185.2,191.3,185.1z"/>
	<path class="st22" d="M118.6,20c0.5,5.5,0.8,7.7,1.6,10.2c0.4,1.1,1.1,3.2,2.5,5.6c3.7,6.1,8.5,7.7,8,9.1
		c-0.5,1.5-5.7-0.2-13.7,0.7c-6.3,0.7-10.9,2.6-13.1,3.6c-5.1,2.2-10.2,4.4-14.1,9.4c-2.5,3.3-3,5.9-4.1,5.7
		c-1.8-0.2-2.5-7.7-2.4-13.1c0.2-6.1,1.4-8.4,0.3-9.1c-1.6-1-5.8,2.7-17,13.1C55.4,65.8,52.9,69.3,51.5,68.6
		c-2.4-1.2,0.1-13,5.9-22.7c5.3-9,12.1-14.3,19.2-19.9c8.1-6.3,14.7-9.7,18.3-11.4c8.2-3.9,18-8.5,22.7-4.6
		C118.3,10.6,117.8,11,118.6,20z"/>
	<path class="st23" d="M57.1,183.1c-0.3,8.5-0.4,10-0.3,13.1c0.1,3.1,0.2,3.7,1.2,13.4c1,10.6,1.1,12,1.7,18c0.8,6.7,1.4,9.7,2,12.5
		c1.3,5.6,2.7,8.8,2.7,8.8c-0.1,0.1-6.9-18.6-10-33.9c-0.5-2.3-1.2-6.5-1.5-12c-0.2-4.1,0.1-7.3,0.3-10.2
		c1.1-11.9,3.4-25.4,4.1-25.3C57.7,167.5,57.5,172.7,57.1,183.1z"/>
</g>
</svg>
