<?xml version="1.0" encoding="utf-8"?>
<!-- Generator: Adobe Illustrator 19.1.0, SVG Export Plug-In . SVG Version: 6.00 Build 0)  -->
<svg version="1.1" xmlns="http://www.w3.org/2000/svg" xmlns:xlink="http://www.w3.org/1999/xlink" x="0px" y="0px"
	 viewBox="0 0 576 576" style="enable-background:new 0 0 576 576;" xml:space="preserve">
<style type="text/css">
	.st0{fill:#4E4E4E;}
	.st1{fill:#252525;}
	.st2{fill:#6B6B6B;}
	.st3{fill:#525353;}
	.st4{fill:#565656;}
	.st5{fill:#979797;}
	.st6{fill:#959595;}
	.st7{fill:#898989;}
	.st8{fill:#454545;}
	.st9{fill:#5D5D5D;}
	.st10{fill:#6A6A6A;}
	.st11{fill:#3E3E3E;}
	.st12{fill:#818181;}
	.st13{fill:#313131;}
	.st14{fill:#404040;}
	.st15{fill:#030303;}
	.st16{fill:#A7A5A6;}
	.st17{fill:#D3D2D2;}
	.st18{fill:#A9A9A9;}
	.st19{fill:#9C9C9C;}
	.st20{fill:#666666;}
	.st21{fill:#484848;}
	.st22{fill:#171717;}
	.st23{fill:#3C3C3C;}
</style>
<g id="neck">
</g>
<g id="Scarf_Base">
	<path class="st0" d="M194.7,371.7c3.9-1.9,6.6,4.4,30,18c9,5.2,16.2,8.7,24,14.7c0.3,0.2,4.7,3.6,10.7,8c4.2,3.1,6.4,4.7,7.4,5.4
		c6.2,3.9,8.5,3.4,16,6.7c8.5,3.7,15.6,8.9,18,10.6c6.5,4.8,7.6,6.8,10.7,6.7c4.3-0.2,7.4-4.5,12-11.3c5.3-7.9,4.1-8.7,8.7-15.3
		c4-5.9,4.9-5.1,12.7-15.3c3.1-4,5.1-7,6.7-9.3c1.1-1.6,2.5-3.9,5.3-8.7c6.8-11.5,8.9-16.4,10-16c0.8,0.3,0,3.1,0.7,8.7
		c0.4,3.6,1.2,6.2,2,8.7c2.4,7.7,6,13,9.3,19.3c4.6,8.6,2.6,7.6,8.7,20.7c5.5,12,7,12.4,10.7,21.3c3.1,7.5,3.1,9.6,6.7,21.3
		c4.1,13.3,5.7,15.6,10.7,30c7.2,20.7,5.5,20.7,10,32.7c11,29.3,24.1,37.7,20,44.7c-2.4,4.2-8.4,3.4-38.7,2.7
		c-16.2-0.4-32.4-0.4-48.7-0.7c-26-0.4-39-0.7-39.3-0.7c-28.9,0.4-39.9,2.8-49.3-5.3c-2.4-2.1-9.5-8.2-9.3-16
		c0.1-5.5,3.7-8.8,2-13.3c-0.3-0.7-0.7-1.3-0.8-1.5c-2.2-3.5-5.9-4.7-7.2-5.2c-6.5-2.2-16.8-7-20.7-9.3c-5.2-3.2-8-7.7-13.3-16.7
		c-8.6-14.4-12.7-27-14-31.3c-3.6-11.6-5.7-21.8-9.3-49.3C190.2,377.9,191.8,373.1,194.7,371.7z"/>
	<path class="st1" d="M319,525c-8,8.7-2.4,16.9-10,29.3c-4.9,8-10.4,10-9.3,13.3c1.3,4,10.6,6.3,17.3,3.3c7.1-3.1,9.4-11,13.3-25.3
		c2.8-10.1,6.6-23.9,2-26.7C329.1,517.2,322.7,520.9,319,525z"/>
	<path class="st1" d="M378.3,437.7c-2.4,8.3-3.8,15.2-4.7,20c-0.7,4-1,6.4-3.3,25.3c-1.2,10.1-1.9,15.2-2,16
		c-0.4,2.8-2.3,13.7-6.7,28c-3.2,10.4-5.5,17.9-10.7,27.3c-3.8,6.9-7.7,12.3-10.7,16"/>
	<path class="st2" d="M388.3,459.7c-2.4,0.6-1.5,7.4-3.3,22.7c0,0-0.7,5.8-2.3,14.2c0,0-3.1,16.1-7.7,29.8
		c-10.3,30.3-33.8,43.4-29.6,50.6c2.7,4.7,12.6-1.3,46.3-2c26.3-0.5,39.5-0.8,40-0.7c3.8,0.7,10.9,2.2,12.7-0.7
		c1.1-1.8-0.4-4.5-2.7-8.7c-22.8-41.9-2.4-7.2-9.3-17.3c-3.6-5.2-4.2-7.4-13.3-28C400.9,479.1,391.9,458.9,388.3,459.7z"/>
	<path class="st3" d="M378.3,521.7c0.2,4.9,6.7,6,14,12.7c7.9,7.2,11.2,15.8,13.3,21.3c4.4,11.4,3.8,20,4.7,20c1,0,2.6-12.2,0.7-26
		c-1-6.8-3.6-19.5-12-32.7c-5.5-8.6-13-16.6-15.3-15.3c-1.5,0.8,0.4,4.4-1.3,10.7C380.7,518,378.2,518.7,378.3,521.7z"/>
	<path class="st3" d="M376.3,531c-1,0-0.4,6.1-4,15.3c-1.8,4.7-2.9,7.4-5.3,10.7c-2.5,3.3-4.3,4.1-4.7,6.7c-0.6,3.6,1.9,8.4,4.7,8.7
		c4.6,0.5,10.8-11.9,12-23.3C380,539.5,377.5,531,376.3,531z"/>
</g>
<g id="lips_BASE">
	<path class="st4" d="M271.1,344.8c0,0,2.4,1,4.5,1.1c0.7,0.1,2.3,0.1,2.7,0.1c0,0,0.3,0,0.7,0c0,0,0.1,0,0.1,0c0.1,0,0.5,0,1,0
		c0,0,0.7,0,1.4-0.1c5.8-0.3,10.1-0.8,10.1-0.8c1-0.1,6.3-0.7,11.7-2.1c0.9-0.2,3.1-0.8,6.2-1.3c1.8-0.3,2.7-0.4,3.4-0.5
		c5.1-0.2,6.1,2.6,10.2,2.3c2.4-0.2,4.9-1.4,6.3-2.1c1.8-0.9,2.1-1.3,3.3-1.5c1.7-0.3,2.6,0.3,5.9,1.1c2.2,0.6,4,0.8,4.7,0.9
		c2.5,0.3,4.8,0.4,6.9,0.5c0.5,0,0.8,0,0.9,0c3.5,0.1,5.9-0.9,5.9-0.9c0,0-5.3,1.6-6.6,2.1c-0.6,0.2-1,0.4-1,0.4
		c-0.7,0.3-1,0.5-1.9,0.8c-1.8,0.6-2.2,0.3-4.4,0.8c-2.2,0.5-2.1,0.8-4.9,1.5c-2.2,0.5-2.2,0.3-3.7,0.8c-1.7,0.6-1.7,0.9-3.8,1.7
		c-1.8,0.7-2.7,1.1-3.8,1.1c-1.7,0.1-2-0.6-3.7-0.3c-1.2,0.2-1.3,0.5-2.7,0.8c-1,0.2-1.9,0.3-3.3,0.2c-2-0.1-4.4-0.2-8.6-0.8
		c-1.7-0.2-3.5-0.5-4-0.6c-2.6-0.4-2.9-0.5-3.9-0.6c-2.1-0.2-2.2-0.1-5.1-0.3c-2.4-0.2-4-0.3-6-0.7c-0.8-0.1-2.4-0.5-4-0.8
		c-1.4-0.3-1.7-0.4-2.4-0.5c-1.9-0.3-3.2-0.3-3.8-0.3C275.3,347,271.1,344.8,271.1,344.8z"/>
	<path class="st5" d="M278.2,347.3c-0.1,0.1,0,0.4,1.7,1.7c2.2,1.8,3.2,2.4,3.2,2.4s2.4,1.5,6.7,4.6c4.3,3.1,4.7,4,8.9,6.8
		c1.8,1.2,2.8,1.7,4.1,2.2c2.2,0.7,4,0.7,7.3,0.7c2,0,3.6-0.2,6.6-0.4c4.8-0.4,4.6-0.6,6.8-0.7c5.2-0.2,5.3,0.6,8,0
		c2.6-0.6,4.3-1.9,6.9-3.7c1.5-1.1,3.4-2.4,5.1-4.7c1.6-2,2.4-3.9,2.8-4.9c0.9-2.2,0.4-3.4,1.6-5c1-1.4,2.4-2,2.3-2.2
		c-0.1-0.2-1.7,0.8-4.1,1.4c-1.3,0.3-1.2,0.1-2.8,0.4c-2.9,0.6-3.2,1.3-5.8,1.7c-0.3,0-1.1,0.2-2.1,0.4c-1.2,0.3-1.7,0.5-2,0.6
		c-0.5,0.2-0.6,0.3-1.4,0.8c-0.7,0.4-1.3,0.7-1.7,0.9c-0.3,0.1-1.6,0.7-3.3,0.9c-2,0.2-2.3-0.5-4.2-0.3c-1.1,0.2-0.9,0.4-2.2,0.7
		c-0.7,0.2-1.8,0.3-4.7,0.2c-1.3-0.1-2.3-0.2-3.8-0.3c-2.6-0.3-3.9-0.4-5.9-0.7c-4.5-0.6-4.1-0.7-6.7-0.9c-1.8-0.2-3.6-0.3-6.3-0.6
		c-2.5-0.2-3.2-0.2-4.6-0.5c-1.9-0.3-2.1-0.5-4.3-0.9C282.1,347.3,278.5,346.6,278.2,347.3z"/>
</g>
<g id="Lips">
</g>
<g id="eye_brows_2">
	<path class="st6" d="M299.8,208.5c0.4,2-3.3,4.2-4,4.6c-0.6,0.3-1.9,1-3.8,1.4c-1.9,0.3-3.3,0.1-4.3,0c-4.8-0.7-7.2-1-8.5-1.4
		c-6.7-1.8-13.7-2.6-21.8-3.7c-5.2-0.7-7.7-1-10.7-0.9c-5.7,0.1-10,0.2-14.9,2.3c-3.3,1.4-5.2,2.9-7.3,2.1c-1.7-0.7-1.7-2.2-4.3-3.7
		c-2.4-1.4-3.8-0.9-4-1.6c-0.5-1.6,6.4-5,13.7-8.5c7.7-3.7,9.6-4.1,11.1-4.4c3.8-0.6,7.2-0.2,10.7,0.2c1.3,0.2,2.1,0.3,10.2,1.4
		c1.4,0.2,1.3,0.2,1.5,0.2c1.7,0.3,3.4,0.7,9.9,2.1c11.9,2.6,14.4,3,16,3.8c0.1,0.1,0.5,0.3,1,0.6c1.8,0.9,2.8,0.3,4.3,0.9
		c0.3,0.1,0.9,0.6,2.1,1.6C298.7,207.2,299.7,208,299.8,208.5z"/>
	<path class="st7" d="M349.8,213.3c0.3,1.9,5.4,3.3,9.7,2.8c1.9-0.2,2.1-0.7,5.2-1.1c2.5-0.4,3.3-0.3,6.4-0.5
		c6.7-0.4,6.6-1.3,9.5-0.9c3.2,0.5,3.1,1.6,6.9,2.1c4,0.5,6.1-0.5,6.9-0.9c0.8-0.5,2.6-1.4,2.6-2.8c0-1.5-2-2.6-4.3-3.9
		c-1.6-0.9-2.9-1.4-4.7-2.1c-3.7-1.3-5.6-2-7.3-2.3c-3.2-0.6-5.6-0.3-9.7,0.2c-2.2,0.3-5.4,0.7-9.5,2.1c-2.9,1-4.9,2-6.2,2.8
		C352,210.5,349.6,211.9,349.8,213.3z"/>
</g>
<g id="Brows_BASE">
	<path class="st8" d="M284.9,204.2c0.2,2.3-6.8,6.1-13.4,5.4c-2.6-0.3-3-1-7.9-2c-3.5-0.7-6.2-0.9-8.7-1c-8.1-0.5-15.8,0.2-18.9,0.4
		c-3.4,0.3-4.8,0.5-4.9,0.3c-0.2-0.7,8.3-3.7,16.4-5.6c2.4-0.6,10.1-2.3,19.9-2.3c1.7,0,6.1,0,11.5,1.6
		C282.1,202,284.8,202.8,284.9,204.2z"/>
	<path class="st4" d="M357.8,209.1c-0.1,2,9,5.6,16.5,3.9c1.5-0.4,2.2-0.8,4.3-1c5.8-0.8,10,1.2,10.2,0.6c0.2-0.5-2.7-2.4-6.1-3.9
		c-2.2-0.9-6.9-2.9-13.6-2.6C365.1,206.2,357.9,207.3,357.8,209.1z"/>
</g>
<g id="nose">
	<path class="st9" d="M292.4,288c5.9,0.9,6.4,1.1,6.9,1.6c1.6,1.4,1.7,3.7,1.8,4.1c0.1,0.8,0.2,2.5-0.9,3.6c-0.9,0.9-1.9,0.8-5,1.2
		c-3.5,0.5-5.3,0.7-6.7,1.8c-2.2,1.7-2.5,4.5-2.5,4.7c-0.6,6,8.2,10.1,7.5,11.4c-0.8,1.3-11.5-0.6-15.8-8.3c-0.5-0.9-2.9-5-1.6-9.5
		c0.6-2.1,1.8-3.7,3.3-5.5c1.2-1.5,2.6-3.2,5-4.4c1.7-0.9,3.2-1.1,3.5-1.1C289,287.5,289.9,287.6,292.4,288z"/>
</g>
<g id="nose_BASE">
	<path class="st8" d="M344.2,289.9c0.2-0.2,2.5,2.1,4.6,4.8c2.2,2.9,5.9,7.7,4.2,11.2c-0.2,0.4-0.4,0.6-0.9,1.3
		c-4.5,5.5-9.5,8.2-9.6,8c-0.1-0.1,2-1.3,3-3.9c0.4-1,0.3-1.3,0.2-1.6c-0.5-1.2-3-1.4-4.4-1.3c-1.6,0.2-2.9,0.8-4.6,1.7
		c-0.8,0.4-1.3,0.7-1.8,1c-0.5,0.3-0.9,0.7-1.7,1.2c-0.2,0.1-0.4,0.2-0.6,0.3c-1.7,0.9-1.9,1.2-2.4,1.4c-1.1,0.4-1.7-0.4-3.8-0.7
		c-1.3-0.2-2.3-0.1-3.9,0.1c-2.8,0.4-3.5,1-5,0.6c-0.7-0.2-0.8-0.4-2-1.1c-1.7-1-3.2-1.5-4.4-1.8c-3.1-1-5.7-1.1-6.6-1.1
		c-2.8-0.1-5-0.4-5.4,0.6c-0.2,0.4,0.6,0.8,1.1,2.3c0.2,0.6,0.3,0.8,0.2,1.1c-0.3,1.7-4.3,3.1-7.6,2.3c-0.2,0-0.8-0.2-1.6-0.6
		c-2-1-3.1-2.5-3.8-3.6c-0.4-0.5-1.5-2.4-2.1-5.2c-0.3-1.6-0.9-4.3,0.2-7.5c0.1-0.4,1.3-3.8,4.6-6.2c0.9-0.7,2.1-1.4,2.2-1.3
		c0.1,0.2-1.2,1.4-2.1,2.4c-0.4,0.4-0.7,0.7-0.9,0.9c-0.4,0.4-0.9,1-1.4,1.8c0,0-0.9,1.4-1.3,3.2c-0.4,1.7-1.2,7.1,2.1,11.5
		c0.7,1,1.7,2.2,3.4,2.8c1.5,0.5,2.8,0.3,4.4,0.1c1.1-0.1,1.3-0.3,1.4-0.5c0.7-0.9-1-2.5-0.5-3.9c0.4-1.2,2.2-1.7,3.3-2
		c3.9-1,7.6,0.3,10.5,1.3c2.5,0.9,3.8,1.3,4.6,1.8c0.6,0.4,1.5,1.1,2.7,1.3c0.6,0.1,1.4,0,1.8,0c0.4,0,1-0.1,1.8-0.2
		c0.9-0.2,1-0.3,1.9-0.5c0.6-0.1,1.1-0.2,1.8-0.2c0.8,0,1.1,0.1,2.7,0.5c1.2,0.2,1.8,0.4,2,0.3c1.3-0.1,2-1,3.2-2
		c1.5-1.2,2.8-1.7,4.9-2.5c2.6-1,4.2-1.7,5.7-1c1.7,0.7,1.7,2.3,3,2.3c1.6,0,2.8-2.5,3-2.8c0.7-1.4,0.6-2.6,0.6-3.6
		c0-0.5-0.1-2-0.9-4c-0.6-1.5-1.1-1.9-2.7-4.3C346.4,293.6,343.9,290.1,344.2,289.9z"/>
</g>
<g id="Eyes_BASE">
	<path class="st10" d="M352.2,239.8c0,2,3.4,3.3,3.7,3.4c1,0.4,1.8,0.4,3.5,0.5c1.9,0.1,3,0.2,4.5-0.3c1.3-0.4,2.1-1.1,2.8-1.6
		c0.6-0.5,1.6-1.2,2.4-2.5c0.5-0.8,1.1-1.6,1.2-2.9c0.1-1.2-0.3-2.2-0.4-2.6c-0.3-0.8-0.7-1.3-0.8-1.4c0,0-0.5-0.6-1.2-0.9
		c-0.8-0.5-2.2-0.7-9.2,2.8c-1.5,0.7-2.7,1.4-4.1,2.6C353.1,237.9,352.1,238.7,352.2,239.8z"/>
	<path class="st8" d="M252.4,228c1.1-1,3.4-0.9,8-0.6c1.6,0.1,2.7,0.2,3.1,0.2c5.2,0.5,7.8,0.8,8.5,1.8c1,1.6-0.4,4.1-1.4,5.9
		c-1,1.7-2.2,3.8-4.5,4.5c-0.7,0.2-1.2,0.2-7.3-1.4c-3.3-0.8-3.8-1-4.5-1.5c-0.5-0.4-2.9-2-3.1-4.9
		C251.1,231.5,250.9,229.3,252.4,228z"/>
	<path class="st10" d="M382.6,234.5c0.1,0.1-0.5,1.3-0.9,2.1c-0.6,1-1.4,2.4-2.8,3.7c-1.9,1.7-3.9,2.4-4.9,2.8
		c-0.4,0.1-2.1,0.4-5.4,1c-2.4,0.4-3.1,0.5-4.2,0.6c-0.3,0-1.7,0.1-3.6-0.1c-2.6-0.2-2.9-0.6-5.3-0.9c-3.6-0.4-4.9,0.1-5.4-0.7
		c-0.5-0.8,0.3-2.1,1.4-3.8c0.2-0.3,1.4-2.1,3.4-3.7c0.6-0.5,1.3-0.9,1.5-1c0.3-0.2,1-0.6,2.1-1.1c2.7-1.3,5.2-2.1,5.2-2.1
		c1.5-0.5,3.3-0.8,6.9-1.4c1.4-0.2,2.8-0.6,4.6-0.6c1,0,1.6,0.1,2.5,0.2c0.5,0.1,1.1,0.2,2.3,0.5c1.2,0.3,1.2,0.3,1.2,0.3
		c0,0.1-1.4-0.1-4.2-0.2c-1.1,0-2.3-0.1-3.8,0.1c-1.1,0.1-1.9,0.2-3.6,0.6c-1.8,0.4-2.8,0.6-4.1,0.9c-1.9,0.5-3.1,0.8-4.6,1.5
		c-1.3,0.6-2.2,1.1-3,1.6c-1,0.6-2.3,1.5-3.8,2.8c-0.7,0.6-4.1,3.6-3.4,4.7c0.2,0.3,0.6,0.3,1.7,0.4c3.1,0.3,3.1,0.7,5.9,0.9
		c1.2,0.1,2,0.1,3.6,0c3.1-0.1,5.7-0.2,9-1c3.1-0.7,4.7-1.6,5.1-1.8c1.6-0.9,2.6-2,3.2-2.6C381.5,235.6,382.4,234.4,382.6,234.5z"/>
	<path class="st8" d="M286.3,240.5c0.1-0.1-0.6-1.6-1.5-3c-0.8-1.3-1.7-2.1-2-2.4c-0.8-0.8-1.5-1.3-2.6-2.1
		c-1.6-1.1-3.2-2.1-5.6-3.2c-2.8-1.3-5.1-1.8-7.1-2.3c-1.8-0.4-3.9-0.9-6.6-1c-0.6,0-2.2,0-5.6,0.1c-2.3,0.1-3.5,0.1-5,0.3
		c-1.4,0.2-2.3,0.4-3.2,0.7c-0.3,0.1-1.3,0.5-2.5,1.3c-1.3,0.9-2,1.3-2,2c0,0.5,0.4,1,2,2.2c1.8,1.3,2.7,2,3.7,2.5
		c1.1,0.6,2.3,1.2,5.4,2.2c2.8,0.9,5.2,1.7,8.6,2.5c1.7,0.4,3.6,0.8,6.3,1.1c2.4,0.3,4.2,0.3,5.1,0.3c1.7,0,2.9,0,4.5-0.2
		c2.3-0.4,4.4-1.1,4.4-1.3c0-0.1-0.4,0-1.2,0.1c-1.5,0.2-2.5,0.4-2.6,0.5c-1,0.2-2.3,0.2-4.9,0c-1.2-0.1-2.8-0.2-5.1-0.5
		c-3.1-0.4-5.5-0.9-6.2-1c-1.1-0.2-3-0.6-5.3-1.4c-3.5-1.1-5.7-2.2-6.3-2.4c-2.6-1.2-3.6-2.1-4.1-2.5c-1-0.9-1.7-1.7-2.1-2.3
		c0.3-0.5,0.8-1.2,1.7-1.7c0.9-0.6,1.8-0.8,5.8-1.3c0.9-0.1,2.4-0.3,4.4-0.3c2.1,0,3.7,0.1,5.3,0.2c1.6,0.1,2.5,0.2,3.9,0.5
		c0.4,0.1,2.1,0.4,4.9,1.3c3,1,4.5,1.4,5.8,2.2c0.7,0.4,2.2,1.7,5.2,4.4c1.3,1.2,2,1.8,2.8,2.8C285.7,239.7,286.2,240.5,286.3,240.5
		z"/>
	<path class="st11" d="M380.8,230.5c0.3-0.6,5.7-0.1,8.2,2.9c0.5,0.6,2,2.6,2,2.6l0,0c0,0,0.9,1.6,0.5,1.9c-0.3,0.3-1.5-0.7-3.4-1.4
		c-3.3-1.3-5.7-0.7-6-1.7c-0.2-0.6,0.5-0.8,0.5-1.7C382.6,231.6,380.7,230.9,380.8,230.5z"/>
	<path class="st8" d="M245.8,228.7c-0.6-1-5.4,0.9-5.9,1c-2.9,1.1-5.5,2.7-5.3,3.1c0.2,0.3,2.1-0.9,5.5-0.9c1.6,0,2.2,0.1,3.2-0.3
		C245,230.9,246.2,229.3,245.8,228.7z"/>
</g>
<g id="face_2__x2B__scarf_shades">
	<path class="st12" d="M361.8,124.3c-5.1-6.2-10.2-9.8-13.8-12c-3.9-2.3-7.2-3.6-13.3-6c-6.7-2.6-11.9-4.1-14-4.7
		c-6.6-1.8-11.6-2.7-15.3-3.3c-6.3-1.1-11-1.9-17.3-2c-2.5,0-2.9,0.1-7.3,0c-5.8-0.1-7.5-0.3-10.7,0c-3.1,0.3-5.4,0.8-7.3,1.3
		c-2.4,0.6-8.9,2.4-16.7,6.7c-14.2,7.8-22.1,18.1-24.9,21.8c-0.5,0.7-1.1,1.4-1.7,2.4c-2.6,4.3-4.5,11.6-10.2,39.9
		c-5,24.6-4.5,24.2-7.1,35.9c-5.2,23.5-6.6,24-9,39.1c-1.1,6.9-3,18.7-3.3,34c-0.1,5.5,0.1,5.6,0,19.3c-0.1,19.2-0.5,20.3,0,24.4
		c1.5,12.1,7.3,20.7,12.3,28c23.4,34.1,72.4,60.1,74.3,57.5c1.6-2.3-33.5-22.7-28.9-40.4c2-7.6,10.2-10.3,9-16.1
		c-1.8-8.6-20.7-7.6-23.2-16.5c-2.3-8.3,12.9-15.5,10.4-22.1c-2.4-6.2-16.5-1.6-29.8-10.1c-0.6-0.4-13.7-9-16.1-23
		c-3.3-19.3,17.5-26.5,16.1-50.6c-0.5-9.2-3.8-12.7-0.9-19.3c4.2-9.6,16.7-14.9,21.8-17c1.2-0.5,5.6-2.3,9.9-3.2
		c25-5.1,51.2,20.8,55.9,16.1c2.6-2.6-5.7-10.4-1.9-17.5c2.6-4.8,9.7-7.5,15.2-7.8c5.9-0.4,8,2.1,10.4,0.5
		c4.1-2.7-1.2-10.3,2.4-17.9c4.5-9.7,18.7-7.1,20.8-16.1c2-8.2-5-13.8-1.9-18.4C348.3,123.2,355.8,123.5,361.8,124.3z"/>
	<path class="st1" d="M225.3,415c-0.9,0.8,4.4,7,14,22c7.5,11.7,6.9,12.2,12.7,20.7c6.4,9.5,7.3,9.1,16.7,22
		c9.2,12.6,12.6,18.6,14,18c1.6-0.7-0.6-8.6-2-14c-1.8-6.7-3.7-13.9-8.7-22c-2.3-3.7-6-7.8-13.3-16c-4.8-5.3-9.4-10.4-16-16.7
		C239.6,426.1,226.6,413.8,225.3,415z"/>
	<path class="st1" d="M203.3,436.3c3.9-1.8,11,5.5,25.3,20c4.2,4.3,10.5,11,17.3,20c3.9,5.1,1.7,2.8,13.3,20c0.9,1.3,2.8,4.1,4.7,8
		c2.3,4.8,4.2,8.6,4,13.3c-0.2,4.6-2.2,10.9-5.3,11.3c-2.5,0.4-4.4-3-8.7-8.7c0,0-6.1-8.2-15.3-17.3c-2.7-2.7-2.7-2.4-18.7-16
		c-6-5.2-9.1-7.7-9.3-8C197.7,465.5,196.8,439.3,203.3,436.3z"/>
	<path class="st13" d="M302.7,456.3c-2.6,1-6.4-6-12.7-12.7c-6.2-6.6-12.1-10.2-22.7-16.7c-8.7-5.3-8.2-3.9-20-10.7
		c-9.5-5.5-15.4-8.8-22.7-14.7c-9-7.3-8-8.6-15.3-13.3c-4.2-2.7-9.6-5.1-9.3-8c0.2-1.6,1.9-2.6,2-2.7c3.3-1.9,8.3,1.3,24.7,12.7
		c7.4,5.1,11.2,7.7,13.3,9.3c11.5,8.6,10.6,9.3,17.3,14c15.2,10.7,20.4,7.6,30,17.3c3.1,3.2,4.9,5.7,9.3,8c7,3.6,13.5,2.4,14,4.7
		c0.3,1.4-2.1,2-4.7,6C303.5,453.6,304.1,455.8,302.7,456.3z"/>
	<path class="st13" d="M331.3,443.7c1.7,0.3,0.7,11.9,0.5,13.7c-0.9,10.3-3.9,17.6-4.5,19c-3,7.2-6.9,11.2-12,18
		c-9.1,12.2-16.4,21.8-28,34c-6.5,6.8-21.6,22.3-22.7,21.3c-0.5-0.4,2.4-4.2,22.7-32c3.5-4.8,6.1-8.4,10-13.3
		c7.5-9.5,12-13.4,14.7-17.3C327.1,465.1,329,443.2,331.3,443.7z"/>
	<path class="st14" d="M298.7,460.3c0.1,2.6-1.9,3.1-6,10c-3.7,6.3-4,9.4-5.3,9.3c-2.1-0.1-2-8.3-5.3-18.7
		c-4.5-14.1-11.9-21.6-10.7-22.7c1-0.8,4.5,3.9,14,10.7C294.1,455.3,298.5,456.6,298.7,460.3z"/>
	<path class="st15" d="M190,388.3c0.1,2.1,0,2,0,12c0,0,0,3.6,0,13.3c0,25.5-0.7,49.8,9.3,70c12.1,24.4,33.3,38.7,34.7,37.3
		c1.8-1.8-20.9-29.4-19.3-30.7c1.2-1,16.1,15.2,16.7,14.7c0.4-0.3-5.5-6.4-11.3-16c-4.4-7.3-8.6-16.5-7.3-17.3
		c1-0.7,4.3,4.1,12,10.7c8.1,6.9,16.7,12.1,17.3,11.3c0.6-0.7-6.8-6.2-14.7-16.7c-7.3-9.7-13.8-22-12-23.3c2.5-2,21.9,18.1,22,18
		c0.1-0.1-8.1-6.7-14.7-17.3c-1-1.7-8.5-13.7-6-16c3.5-3.2,23.6,14,24.7,12.7c0.9-1-12.2-11.4-24.7-29.3c-6.5-9.4-10.9-18-10-18.7
		c1-0.7,6.2,8.2,17.3,15.3c11.4,7.3,23.9,9.6,24.7,8c0.4-1-3.8-3.1-16-12.7c-12.2-9.5-14.7-12.6-16-16.7c-1.8-5.6,0-6.8-2-11.3
		c-4.8-10.6-21.5-15.4-25.3-11.3C187.8,376,189.5,377.8,190,388.3z"/>
</g>
<g id="Layer_14">
</g>
<g id="BASE_face">
	<path class="st8" d="M195.7,334.5c3.6,9.2,8.9,15.7,11.8,19.3c0.5,0.6,1.7,2,3.1,3.7c1.1,1.3,3.9,4.5,6.9,7.7
		c4.1,4.3,7.5,7.4,10.2,9.8c3.4,3,7.3,6.5,12.7,10.4c1.8,1.3,2.6,1.8,7.1,5c5,3.6,5,3.6,6.7,4.8c2.3,1.6,6.3,4.3,11.5,6.9
		c3,1.5,10.6,5.3,11.2,4.5c1.1-1.6-25.4-19.1-43.9-38.5c-1.3-1.3-2.7-2.9-4.3-4.8c-6.8-8.3-7.9-13.2-14.2-25.7
		c-12.1-24.2-13.7-30.9-16.8-30.6c-1.5,0.1-2.8,1.8-3.6,2.9c-1.8,2.5-2.2,5.5-1.8,10.3C193.1,327.9,195.3,333.6,195.7,334.5z"/>
	<path class="st8" d="M200.4,215.6c0.8-3.2,2.7-10.9,4.3-19.5c2.1-11.5,3.3-20,3.3-20c0.3-2.3,0.6-4.6,1.4-7.8
		c1.3-5.1,2.2-5.8,3.3-10.6c0.9-3.9,1.3-7.6,1.4-9.2c0.4-3.9,0.2-4.9,0.9-7.4c0.9-2.8,1.6-2.9,2.4-5.7c0.9-3.3,0-3.6,0.9-6.7
		c0.5-1.7,1.4-3.2,3.1-6.2c1.3-2.3,2-3.3,2.6-3.9c0.8-0.9,1.2-1.3,2.8-2.8c3.8-3.5,3.5-3.3,5-4.6c2.8-2.3,5.2-3.9,5.2-3.9
		c0.7-0.5,2.7-1.4,6.6-3.3c2.8-1.3,3.5-1.7,4.6-2.1c1.1-0.4,1.7-0.5,4.4-1.3c1.3-0.4,3-0.8,5-1.4c0.9-0.1,2.3-0.3,4-0.7
		c1.6-0.4,2.1-0.7,4-1.1c2.1-0.5,3.1-0.8,4.3-0.7c0.4,0,2.2,0.2,4,1.4c1.8,1.2,2.7,2.7,3.1,3.4c-0.3,2.2-1,3.8-1.7,4.8
		c-3.9,6.4-13.1,7.8-16.3,8.3c-4.1,0.6-4.5,0-7.1,0.9c-3.3,1.3-4.8,3.3-8.8,7.6c-6.7,7.2-6.4,5.5-8.2,8.2c-5,7.4-4.3,16.1-4.1,17.8
		c0.4,5.2,1.8,6.1,1.3,10.7c-0.5,4.3-1.8,4.5-2.8,9.7c-1.2,6.1,0.4,7-0.9,12.2c-1.2,4.6-3.5,7.8-4.7,9.4c-2.9,4-4.7,4.5-7.6,7.6
		c-4.5,5-6.1,10.5-7.1,14.2c-2.9,10.4,0.1,15.7-4.1,19.1c-2,1.6-5.4,2.5-7,1.3C195.7,231.9,197.5,227.2,200.4,215.6z"/>
	<path class="st16" d="M383.3,134c2.8,4.1,7.7,11.5,11.3,22c2.7,7.7,3.5,13.7,4.7,22.7c2.1,15.4-0.1,13.9,2,23.3
		c0,0,2.9,13.1,2.8,21.4c0,0.8,0,1.7,0,1.7c0,2.5-0.1,4.4-0.1,5c-0.3,7-0.4,10.5,0,14c0.4,3.7,1.1,5.1,2,8.7
		c2.1,8.6,1.6,15.9,1.3,20c0,0-0.8,12.2-5.3,23.3c-0.2,0.4-0.6,1.6-2.5,6.2c-1.9,4.7-2.9,7-3.5,8.5c-2.8,6.9-3.5,9.1-4.7,12
		c-2.5,6.2-5.1,10.3-10,18c-3.8,6-7.2,11.4-12,17.3c-1.7,2.1-3.4,4.5-6.7,9.3c-2.9,4.2-3.3,5-3.3,6c-0.3,4.8,7.2,7.4,12.7,12
		c10.3,8.5,12.1,22.8,14.7,42c1.4,10.7,0.4,13.2,2.7,24c1.7,8.1,3.9,14.2,6,20c4.2,11.7,6.4,17.8,11.3,25.3c5.9,9,12.1,14.6,16,18
		c6.8,6,15.1,11.7,16,10.7c0.9-1-7.1-7.2-14-20.7c-0.7-1.3-3.7-7.4-6.3-15.9c-1.5-5-2.2-8.7-3-12.7c-1.7-8.7-3.8-20-2-20.7
		c1.7-0.6,6.7,7.5,9.3,16c2.4,7.5,1.1,9.4,3.3,16c0.6,1.9,2.3,6.2,10,16c7.5,9.5,17.6,20.2,18.7,19.3c0.9-0.7-6.4-8.7-13.3-24
		c-2.3-5.1-6.3-14.9-8.7-27.3c-2.4-12.4-0.4-13.5-2-29.3c-0.5-4.8-2.2-20.6-8-39.3c-3.4-10.9-3.9-9.2-10.7-28.7
		c-7.7-22-8.4-28.3-8.7-31.3c-0.6-6.9,0-13.5,1.3-26.7c1.2-12.3,2.5-20.1,3.3-26c4.3-30.6,0-34.7,4-67.3c2.1-17.2,3.4-16.9,4.7-32
		c2.1-24.7-0.1-40.4-0.7-44c-1.2-8.1-2.7-17.7-7.3-29.3c-5.3-13.4-11.9-22.2-19.3-32c-9.3-12.3-15.1-20-25.3-28
		c-7.4-5.8-26.7-20.9-51.3-20.7c-7.8,0.1-4.3,1.6-30.7,6c-3.9,0.7-6.9,1.1-8,3.3c-2.3,4.6,7.2,10,12.7,24.7c3.2,8.4,1.4,10.3,4.7,14
		c4.9,5.5,11.6,4.4,24.7,6.7c2.7,0.5,14.7,2.7,26.7,8c3.7,1.6,16.3,7.6,28.7,20C373.1,121.1,378.1,126.3,383.3,134z"/>
	<path class="st17" d="M262,45.3c4,4.3,0.1,8.2,4.7,18.3c4.7,10.3,12.5,14.5,10.7,18.7c-0.7,1.6-2.7,2.5-6.7,4.3
		c-4.2,1.9-7.7,2.6-8.4,2.8c-7.1,1.8-11.4,1.4-20.2,4.6c-6.3,2.3-15.7,5.9-20.7,14.7c-1.9,3.4-2.5,6.4-2.7,7.3
		c-3.5,17.3-21.4,59.9-30,89.7C183.1,225,173.9,265,173.3,332c0.1,19,1.3,34.5,2.4,45.4c2.6,26.1,7.9,58.9,18.9,85.9
		c7.8,19.1,16.7,33.3,16.7,33.3c16.8,26.9,33.6,39.4,32,41.3c-1.7,1.9-21.9-8.2-36.7-27.3c-4.7-6.1-8.9-15.2-17.3-33.3
		c-8.7-18.8-13-28.1-16.7-40c-4.3-14-6-25.2-8-38c-3.5-22.3-3.6-35.4-4-35.3c-0.7,0-2.4,37.6,6,83.3c0.4,2,5.1,27,16.7,58
		c8.3,22.1,13.8,30.5,21.3,37.3c12.1,10.9,25.3,14.1,24.7,16c-0.6,1.8-14,0.6-26.7-5.3c-14.8-7-23.6-18.1-29.3-25.3
		c-6.7-8.4-10.6-15.9-13.3-21.3c-1.4-2.7-5.6-11.1-10.7-26.7c-4.4-13.5-7.2-25.4-9.3-36c-5-25.2-4.1-31.9-8.7-60.7
		c-3.6-22.5-4.5-20.3-7.3-38.7c-5-31.6-5.2-56.3-5.3-71.3c-0.2-26-0.3-45.6,4.7-72c5.1-27,12.7-45.9,14.7-50.7
		c9.8-23.8,21-40.1,24.7-45.3c12.7-18,25.1-29.9,32-36c11.2-9.9,18.8-16.7,31.3-21.3C231,46.1,253.8,36.7,262,45.3z"/>
</g>
<g id="hair">
	<path class="st18" d="M220.9,122.3c-1.5-0.8-10.3,11.2-18,24.4c-12.7,21.8-17.1,40.3-19.9,51.5c-1.9,7.5-2.5,12.1-2.8,16.5
		c-0.5,7.7,0.5,9.5,0.5,19.3c0,3.3-0.1,5.6-1.4,20.7c-0.6,7.2-1.2,14.4-1.9,21.6c-2.3,24.4-4.1,44-2,66.7c1.3,13.4,2.8,16.9,6.7,50
		c0.6,5,1,9.2,1.3,12c0.3,3.9,0.9,8.6,2,14c0.2,1,1.5,7.1,4,14c5.8,16.1,17.4,34.8,18.8,34.1c1.4-0.7-11.9-20-15.4-49.4
		c-1.1-9-1.9-24.1-2-26c-0.4-8-0.7-13.9-0.7-22c0.1-10.7,0.7-11.9,0.7-22c-0.1-10.9-0.8-10.6-0.7-18.7c0.2-10.5,1.5-13.4,2.2-23.7
		c0.7-9.6-0.5-10.5-0.2-23.4c0.5-22.1,0.8-33.3,4.3-48.3c1.5-6.3,3.7-14.4,6.6-29c2-10.3,1.9-11.2,3.8-19.8
		c2.6-11.5,3.8-14.2,5.7-24.4c1.6-8.7,1-8.4,2.4-15.2C217.8,130.4,222,122.9,220.9,122.3z"/>
	<path class="st19" d="M164.4,133.2c-9.4,11.3-13,23.8-15.6,38.6c-4.6,26-4,47.7-3.3,62.5c1.4,29.2,2.4,51.7,9,81.8
		c8.7,40,22,69.9,23.7,69.4c1.6-0.5-12.4-27.3-8.5-63.9c0.4-3.5,3.6-19.5,9.9-51.5c3.3-16.5,4.1-20.2,4.7-27.6
		c1.4-17.2-1.1-21.1,0.9-38.1c1.6-13.4,4.7-23.5,5.7-26.7c2-6.2,4.3-11.6,9-22.5c3.6-8.4,5.5-12.7,7.6-15.6
		c4.5-6.4,7.6-7.6,8.5-12.4c0.9-4.5-1.2-6.1-2.8-13.3c-2.8-12.3,0.8-17.8-1.9-19.3c-3.2-1.8-9.4,4.9-31.2,24.4
		C166.9,130.6,166.6,130.5,164.4,133.2z"/>
</g>
<g id="hair_Base">
	<path class="st20" d="M294,89.5c-8.3-5.5-12-13.3-14.2-17.9c-3.1-6.6-3.4-12.3-3.8-17c-0.8-9.1-1.2-13.6,1.2-17.4
		c6.1-9.9,25.9-8.2,33.1-7.5c14,1.2,24.3,6.3,33.8,10.9c7.4,3.6,15.4,7.5,23.9,15c3,2.7,7.5,7,24.5,33.9c9.8,15.4,14.6,23.3,17,29.9
		c4.8,12.9,5.9,23.3,6.6,30.3c0.4,4.1,0.7,9.4-2.4,51.5c-1,13.3-1.5,19.1-1.9,29.4c-0.5,13.2-0.2,16.8-0.5,24.8
		c-0.8,25.9-5.2,28.9-7.1,56.5c-1.2,17.3-1.8,26.1,1.4,37.7c5,18.2,15.5,30.1,15.2,30.3c-0.4,0.2-12.3-11-18.5-29
		c-8.3-24.3-2.3-49.4-1.2-54c0.2-1,0.5-2.1,1.2-4.8c3.5-15,5.8-22.4,5.7-29.4c-0.1-5.4-0.8-5.6-2.4-21.6c-0.3-2.6-0.4-4.3-1.9-22.5
		c-1.6-19.9-1.6-20.3-1.9-23c-0.2-2.2-1.8-19.1-3.3-27.1c-0.5-2.8-6-30.5-27.9-48.3c-22-17.8-59.6-24.8-62-25.3
		C306.2,94.6,300.2,93.6,294,89.5z"/>
	<path class="st21" d="M390.8,321.9c-2.9-0.6-10.5,19.9-10.4,19.8l0,0c-9.6,11.7-12.8,17-12.8,17c-2.1,3.6-3.2,5.5-3.8,7.8
		c-1.6,6.9,1.1,12.8,2.4,15.6c2.1,4.8,5.5,15.3,12.3,36.3c5.2,16.1,6.6,27.3,7.6,27.1c1.5-0.2-2.8-27.5,0-28
		c1.1-0.2,2.6,4.1,5.7,10.6c7.7,16.2,11.4,16.8,16.1,27.6c1.9,4.3,3.3,12.4,6.2,28.5c3.6,20.5,4,27.2,4.7,27.1
		c1.2-0.1,3-17.8-0.9-37.7c-2.6-13.1-6.7-22.8-6.2-23c0.5-0.2,4.5,7.7,7.6,17.5c5.2,16.7,4.3,28.5,5.7,28.5c1.4,0,3.4-11.6,3.3-23.9
		c-0.1-7.9-1-17.1-3.8-27.6c-4.7-17.7-11.7-28.1-10.9-28.5c0.8-0.4,8.4,9.2,13.3,22.5c3.9,10.8,4.1,18.9,4.7,18.8
		c0.8-0.1,1-13-1.4-27.1c-2.6-15.2-6.7-24.3-8-27.1c-0.7-1.4-2.8-5.8-6.2-11c-6.2-9.8-9.1-10.7-12.8-17.5c-1.3-2.3-2.8-7.7-5.7-18.4
		c-3.1-11.2-4.6-16.8-5.2-22.5C391.4,326.4,392.1,322.2,390.8,321.9z"/>
	<path class="st22" d="M274.4,51.4c-2.3,14.6,1.1,22.3,4.7,26.7c3.2,3.8,7.3,6,6.6,8.3c-0.8,2.8-7.4,1.9-16.6,4.1
		c-5.3,1.3-10.3,3.9-20.4,9.2c-12.4,6.5-18.6,9.8-22.7,15.2c-4.1,5.3-4.9,9.5-6.6,9.2c-2.9-0.4-4-12.5-3.8-21.1
		c0.3-9.9,2.3-13.6,0.5-14.7c-2.6-1.6-9.4,4.4-27.5,21.1c-18.3,17.1-22.3,22.8-24.6,21.6c-3.9-1.9,0.2-21,9.5-36.7
		c8.5-14.5,19.5-23.1,31-32.1c13.1-10.2,23.7-15.7,29.5-18.4c13.3-6.3,29.1-13.7,36.6-7.5C272.5,37.7,275.6,41.4,274.4,51.4z"/>
	<path class="st23" d="M174.2,318.7c-0.5,13.8-0.6,16.1-0.5,21.1c0.2,5,0.4,6,1.9,21.6c1.6,17.1,1.7,19.4,2.8,29
		c1.3,10.8,2.2,15.6,3.3,20.2c2.1,9,4.3,14.2,4.3,14.2c-0.2,0.1-11.1-30.1-16.1-54.7c-0.8-3.7-2-10.5-2.4-19.3
		c-0.3-6.6,0.1-11.8,0.5-16.5c1.7-19.2,5.5-41,6.6-40.9C175.1,293.5,174.8,301.9,174.2,318.7z"/>
</g>
</svg>
